<?xml version="1.0" encoding="UTF-8" standalone="no"?>
<!-- Created with Inkscape (http://www.inkscape.org/) -->

<svg
   xmlns:dc="http://purl.org/dc/elements/1.1/"
   xmlns:cc="http://creativecommons.org/ns#"
   xmlns:rdf="http://www.w3.org/1999/02/22-rdf-syntax-ns#"
   xmlns:svg="http://www.w3.org/2000/svg"
   xmlns="http://www.w3.org/2000/svg"
   xmlns:sodipodi="http://sodipodi.sourceforge.net/DTD/sodipodi-0.dtd"
   xmlns:inkscape="http://www.inkscape.org/namespaces/inkscape"
   width="50.627064mm"
   height="52.024166mm"
   viewBox="0 0 179.38723 184.3376"
   id="svg2"
   version="1.1"
   inkscape:version="0.91 r13725"
   sodipodi:docname="logo.svg">
  <defs
     id="defs4" />
  <sodipodi:namedview
     id="base"
     pagecolor="#ffffff"
     bordercolor="#666666"
     borderopacity="1.0"
     inkscape:pageopacity="0.0"
     inkscape:pageshadow="2"
     inkscape:zoom="0.98994949"
     inkscape:cx="27.202963"
     inkscape:cy="32.135261"
     inkscape:document-units="px"
     inkscape:current-layer="layer1"
     showgrid="false"
     fit-margin-top="0"
     fit-margin-left="0"
     fit-margin-right="0"
     fit-margin-bottom="0"
     inkscape:window-width="1366"
     inkscape:window-height="705"
     inkscape:window-x="-8"
     inkscape:window-y="-8"
     inkscape:window-maximized="1" />
  <metadata
     id="metadata7">
    <rdf:RDF>
      <cc:Work
         rdf:about="">
        <dc:format>image/svg+xml</dc:format>
        <dc:type
           rdf:resource="http://purl.org/dc/dcmitype/StillImage" />
        <dc:title></dc:title>
      </cc:Work>
    </rdf:RDF>
  </metadata>
  <g
     inkscape:label="Layer 1"
     inkscape:groupmode="layer"
     id="layer1"
     transform="translate(-135.53713,-158.55974)">
    <path
       style="font-style:normal;font-weight:normal;font-size:medium;line-height:125%;font-family:sans-serif;letter-spacing:0px;word-spacing:0px;fill:#1a1a1a;fill-opacity:1;stroke:none;stroke-width:1px;stroke-linecap:butt;stroke-linejoin:miter;stroke-opacity:1"
       inkscape:connector-curvature="0"
       id="path4141"
       d="M 135.53713,257.91836 Q 135.53713,250.03274 137.85641,241.59052 140.1757,233.05549 144.16492,224.42774 148.24686,215.70718 153.53485,206.98662 158.91565,198.26606 164.94581,189.82384 170.97597,181.38162 177.28443,173.496 183.6857,165.61038 189.71587,158.55974 L 207.06418,158.55974 Q 200.10631,167.00196 193.24121,175.62976 186.46887,184.16474 180.25313,192.79254 174.03744,201.42033 168.65668,209.95532 163.36869,218.49035 159.47224,226.74703 155.57584,235.00372 153.34931,242.98211 151.12279,250.86768 151.12279,258.19666 151.12279,265.98952 153.81319,271.74134 156.50354,277.40043 160.86383,281.11131 165.31687,284.82218 170.88321,286.67764 176.54226,288.44029 182.38689,288.44029 187.11828,288.44029 191.75686,287.97641 196.39544,287.51258 200.10631,286.95594 204.46659,286.30653 208.363,285.37882 L 208.363,298.18132 Q 204.65212,299.01626 201.40513,299.5729 198.2509,300.22231 195.00385,300.59338 191.75686,301.05725 188.23152,301.24279 184.79894,301.42832 180.62424,301.42832 171.1615,301.42832 162.90482,298.45962 154.64813,295.49092 148.5252,289.83187 142.49499,284.17277 138.9697,276.19438 135.53713,268.12328 135.53713,257.91836 Z" />
    <path
       style="font-style:normal;font-weight:normal;font-size:medium;line-height:125%;font-family:sans-serif;letter-spacing:0px;word-spacing:0px;fill:#808080;fill-opacity:1;stroke:none;stroke-width:1px;stroke-linecap:butt;stroke-linejoin:miter;stroke-opacity:1"
       inkscape:connector-curvature="0"
       id="path4143"
       d="M 208.17923,206.61555 Q 215.97203,206.61555 222.74437,205.96615 229.60947,205.22397 234.8047,204.29626 240.83491,203.27575 245.84455,201.97693 L 245.84455,214.96501 Q 240.92767,216.26382 235.08304,217.2843 230.07335,218.212 223.39378,218.95418 216.71421,219.60359 209.10693,219.60359 201.31408,219.60359 194.6345,219.23252 188.0477,218.76864 183.03806,218.212 177.28619,217.65541 172.36927,216.82042 172.2765,217.84094 172.2765,218.86141 172.18374,219.69635 172.18374,220.62411 172.18374,221.55181 172.18374,222.20122 172.18374,234.35431 175.15243,244.00258 178.12113,253.55808 182.85248,260.88706 187.58387,268.21604 193.52127,273.50403 199.45866,278.69925 205.30329,282.03901 211.24069,285.37882 216.52868,286.95594 221.90943,288.44029 225.43477,288.44029 L 225.43477,301.42832 Q 218.7552,301.42832 211.05511,299.38737 203.44783,297.43915 195.74779,293.17163 188.14051,288.90416 180.99706,282.22459 173.94638,275.45221 168.47286,266.08228 163.09211,256.61955 159.84507,244.28088 156.59807,231.94225 156.59807,216.54212 156.59807,214.50113 156.69084,212.83125 156.7836,211.16137 156.87637,209.49149 157.06195,207.82156 157.24748,206.05891 157.52578,204.29626 157.80412,201.97693 161.23665,202.81192 166.98851,203.64686 172.83314,204.38903 179.69825,205.13121 186.56335,205.78061 193.9851,206.24444 201.40684,206.61555 208.17923,206.61555 Z" />
    <path
       style="font-style:normal;font-weight:normal;font-size:medium;line-height:125%;font-family:sans-serif;letter-spacing:0px;word-spacing:0px;fill:#1a1a1a;fill-opacity:1;stroke:none;stroke-width:1px;stroke-linecap:butt;stroke-linejoin:miter;stroke-opacity:1"
       inkscape:connector-curvature="0"
       id="path4145"
       d="M 211.07848,250.68215 Q 211.07848,238.99289 213.76888,229.90126 216.45928,220.80964 221.65451,214.68671 226.84973,208.47097 234.457,205.22397 242.15705,201.97693 252.08366,201.97693 253.75354,201.97693 256.07283,202.16251 258.39212,202.34804 260.80418,202.7191 263.21628,203.09021 265.4428,203.64686 267.76209,204.20345 269.33921,204.94563 L 269.33921,219.13976 Q 267.66933,218.11924 265.25722,217.37706 262.84517,216.54212 260.34035,216.07824 257.83548,215.52165 255.51619,215.2433 253.1969,214.96501 251.71255,214.96501 226.29308,214.96501 226.29308,248.17733 L 226.29308,342.89733 211.07848,342.89733 211.07848,250.68215 Z" />
    <path
       style="font-style:normal;font-weight:normal;font-size:medium;line-height:125%;font-family:sans-serif;letter-spacing:0px;word-spacing:0px;fill:#ff6600;fill-opacity:1;stroke:none;stroke-width:1px;stroke-linecap:butt;stroke-linejoin:miter;stroke-opacity:1"
       inkscape:connector-curvature="0"
       id="path4147"
       d="M 229.85258,299.20179 Q 229.85258,288.90416 230.78029,277.77155 231.80081,266.54611 234.30563,255.78461 236.81045,244.93029 241.17073,235.18925 245.62378,225.44822 252.48893,218.11924 259.4468,210.69749 269.09507,206.33721 278.74333,201.97693 291.82418,201.97693 295.99888,201.97693 298.78205,202.16251 301.56521,202.34804 303.8845,202.81192 306.29656,203.18298 308.70861,203.83239 311.21348,204.38903 314.92436,205.22397 L 314.92436,218.02647 Q 312.32672,217.19153 308.98696,216.54212 306.11103,215.98548 302.21462,215.52165 298.31817,214.96501 293.58683,214.96501 283.19638,214.96501 275.5891,218.76864 267.98178,222.47952 262.60103,228.88079 257.22027,235.18925 253.7877,243.63152 250.35517,251.98097 248.40694,261.35089 246.45872,270.72086 245.71654,280.4619 245.06718,290.20293 245.06718,299.20179 L 229.85258,299.20179 Z" />
  </g>
</svg>
